<svg width="50" height="50" viewBox="0 0 50 50" fill="none" xmlns="http://www.w3.org/2000/svg">
<path d="M25 50C38.8071 50 50 38.8071 50 25C50 11.1929 38.8071 0 25 0C11.1929 0 0 11.1929 0 25C0 38.8071 11.1929 50 25 50Z" fill="#2BA9AE"/>
<path d="M9.31067 26.2229C12.2332 24.6131 15.4954 23.2696 18.5436 21.9192C23.7875 19.7073 29.0523 17.5338 34.3702 15.5102C35.4049 15.1654 37.264 14.8282 37.4463 16.3616C37.3465 18.532 36.9359 20.6897 36.6542 22.8474C35.9393 27.5924 35.113 32.3212 34.3073 37.0505C34.0297 38.6258 32.0563 39.4414 30.7936 38.4332C27.759 36.3834 24.7011 34.3537 21.7052 32.2564C20.7239 31.2592 21.6339 29.8272 22.5103 29.1151C25.0097 26.652 27.6603 24.5593 30.0291 21.9689C30.668 20.4258 28.7801 21.7263 28.1574 22.1247C24.7358 24.4826 21.3978 26.9845 17.7903 29.0568C15.9476 30.0712 13.7999 29.2043 11.958 28.6382C10.3066 27.9545 7.88655 27.2656 9.31051 26.223L9.31067 26.2229Z" fill="white"/>
</svg>
