<svg width="50" height="50" viewBox="0 0 50 50" fill="none" xmlns="http://www.w3.org/2000/svg">
<path d="M48.8672 23.6133C48.8086 29.8047 47.2168 34.6484 43.9062 38.8574C40.3515 43.3789 35.7226 46.25 30.0586 47.4121C25.6836 48.3008 21.4258 47.9102 17.2461 46.3965C16.3183 46.0547 15.4101 45.6543 14.541 45.1758C14.2773 45.0293 14.0527 45.0098 13.7597 45.1074C9.80466 46.3867 5.83982 47.6562 1.87497 48.916C1.69919 48.9746 1.46482 49.1406 1.3281 49.0137C1.17185 48.8574 1.36716 48.623 1.42576 48.4375C2.21677 46.084 3.00779 43.7207 3.80857 41.3672C4.29685 39.9316 4.7656 38.5059 5.27341 37.0801C5.41013 36.709 5.3613 36.4258 5.15622 36.084C4.15036 34.3652 3.40818 32.5293 2.88083 30.6055C1.89451 26.9922 1.78708 23.3398 2.55857 19.6875C3.39841 15.7031 5.15622 12.1484 7.8613 9.08203C11.1328 5.37109 15.166 2.91992 19.9609 1.73828C23.0175 0.986329 26.1035 0.869141 29.209 1.37695C33.2715 2.04102 36.9336 3.65234 40.1269 6.25C43.4472 8.95508 45.8691 12.3145 47.3925 16.3477C48.2324 18.5254 48.8965 22.0898 48.8672 23.6133ZM7.28513 43.1152C9.707 42.334 12.0215 41.5918 14.3164 40.8398C14.6191 40.7422 14.8633 40.7617 15.1269 40.9375C16.0058 41.5234 16.9531 41.9922 17.9297 42.4023C21.1035 43.75 24.4043 44.2383 27.8125 43.7988C31.9922 43.2617 35.664 41.582 38.75 38.6621C42.6367 34.9805 44.7168 30.4687 44.9023 25.1367C45.0781 19.9121 43.3984 15.3223 39.8925 11.4258C36.5625 7.72461 32.3828 5.61523 27.4511 5.08789C23.164 4.62891 19.1504 5.55664 15.4394 7.7832C12.2656 9.69727 9.83396 12.3047 8.1445 15.5957C6.27927 19.2187 5.6445 23.0664 6.18161 27.0996C6.582 30.1465 7.67575 32.9492 9.43357 35.4688C9.62888 35.752 9.68747 35.9863 9.57028 36.3184C9.20896 37.3144 8.88669 38.3203 8.54489 39.3164C8.13474 40.5469 7.73435 41.7773 7.28513 43.1152Z" fill="#2BA9AE"/>
<path d="M13.7695 19.0137C13.8183 16.6894 14.6386 14.9609 16.1914 13.584C16.6894 13.1348 17.3047 12.9395 17.998 13.0371C18.291 13.0762 18.584 13.1055 18.8769 13.0859C19.4238 13.0566 19.7949 13.3203 19.9804 13.7988C20.6347 15.498 21.2695 17.1973 21.9043 18.9062C22.1191 19.4922 21.748 19.9512 21.4355 20.3711C21.0742 20.8691 20.6347 21.3086 20.2051 21.748C19.7656 22.1973 19.707 22.4512 20.0097 22.998C21.7773 26.2109 24.2578 28.6816 27.6269 30.2051C27.7441 30.2539 27.8613 30.3223 27.9785 30.3809C28.4277 30.5859 28.8281 30.5371 29.1699 30.1465C29.7949 29.4141 30.4785 28.7402 31.0547 27.9687C31.4355 27.4609 31.6992 27.373 32.2754 27.6269C33.9941 28.3691 35.6054 29.3066 37.2461 30.2148C37.5488 30.3809 37.6562 30.6348 37.6465 30.9863C37.5586 33.8672 35.9082 35.3711 33.0078 36.0352C31.6015 36.3574 30.3027 36.0059 29.0137 35.5371C26.3086 34.5605 23.7011 33.4082 21.5136 31.4746C19.7754 29.9316 18.2422 28.2129 16.9433 26.2891C15.9472 24.8047 14.9121 23.3496 14.3359 21.6211C14.0039 20.7031 13.7597 19.7656 13.7695 19.0137Z" fill="#2BA9AE"/>
</svg>
